<?xml version="1.0" encoding="utf-8"?>
<!-- Generator: Adobe Illustrator 15.1.0, SVG Export Plug-In . SVG Version: 6.00 Build 0)  -->
<svg version="1.2" baseProfile="tiny" id="Layer_1" xmlns="http://www.w3.org/2000/svg" xmlns:xlink="http://www.w3.org/1999/xlink"
	 x="0px" y="0px" width="130px" height="40px" viewBox="0 0 130 40" overflow="inherit" xml:space="preserve">
<g>
	<path fill="#2d2d2d" d="M27.433,1.379v24.24c0,1.84-0.351,3.58-1.05,5.221c-0.701,1.641-1.661,3.08-2.88,4.32c-1.22,1.24-2.65,2.209-4.29,2.908
		c-1.641,0.701-3.38,1.051-5.22,1.051c-1.84,0-3.581-0.35-5.22-1.051c-1.641-0.699-3.081-1.668-4.32-2.908
		c-1.24-1.24-2.21-2.68-2.91-4.32c-0.7-1.641-1.05-3.381-1.05-5.221c0-1.879,0.35-3.63,1.05-5.25c0.7-1.62,1.67-3.04,2.91-4.26
		c1.239-1.22,2.679-2.18,4.32-2.88c1.64-0.699,3.38-1.05,5.22-1.05h8.1v-10.8H27.433z M13.993,33.779
		c1.119,0,2.169-0.211,3.15-0.631c0.979-0.42,1.839-0.998,2.58-1.738c0.74-0.74,1.32-1.611,1.74-2.611
		c0.42-0.998,0.63-2.059,0.63-3.18v-8.1h-8.1c-1.121,0-2.181,0.21-3.18,0.63c-1,0.42-1.87,1-2.61,1.74
		c-0.741,0.741-1.32,1.601-1.74,2.58c-0.42,0.98-0.63,2.031-0.63,3.15c0,1.121,0.21,2.182,0.63,3.18c0.42,1,1,1.871,1.74,2.611
		c0.74,0.74,1.61,1.318,2.61,1.738C11.812,33.568,12.873,33.779,13.993,33.779z"/>
	<path fill="#2d2d2d" d="M42.732,12.179c1.88,0,3.63,0.351,5.25,1.05c1.62,0.701,3.04,1.661,4.26,2.88c1.22,1.22,2.18,2.64,2.88,4.26
		c0.699,1.62,1.05,3.371,1.05,5.25v13.5h-13.44c-1.84,0-3.58-0.35-5.22-1.051c-1.641-0.699-3.081-1.668-4.32-2.908
		c-1.24-1.24-2.21-2.68-2.91-4.32c-0.701-1.641-1.05-3.381-1.05-5.221c0-1.879,0.35-3.63,1.05-5.25c0.699-1.62,1.669-3.04,2.91-4.26
		c1.239-1.22,2.68-2.18,4.32-2.88C39.152,12.53,40.892,12.179,42.732,12.179z M50.833,33.779v-8.16c0-1.119-0.21-2.17-0.63-3.15
		c-0.42-0.979-1-1.839-1.74-2.58c-0.741-0.74-1.6-1.32-2.58-1.74c-0.98-0.42-2.03-0.63-3.15-0.63c-1.12,0-2.181,0.21-3.18,0.63
		c-1,0.42-1.87,1-2.61,1.74c-0.741,0.741-1.32,1.601-1.74,2.58c-0.42,0.98-0.63,2.031-0.63,3.15c0,1.121,0.21,2.182,0.63,3.18
		c0.42,1,0.999,1.871,1.74,2.611c0.74,0.74,1.61,1.318,2.61,1.738c1,0.42,2.06,0.631,3.18,0.631H50.833z"/>
	<path fill="#2d2d2d" d="M73.932,12.179v5.34h-2.699c-1.121,0-2.17,0.21-3.15,0.63c-0.98,0.42-1.84,1-2.58,1.74c-0.741,0.741-1.32,1.601-1.74,2.58
		c-0.42,0.98-0.63,2.031-0.63,3.15v13.5h-5.4v-13.5c0-1.879,0.35-3.63,1.05-5.25c0.7-1.62,1.67-3.04,2.91-4.26
		c1.239-1.22,2.679-2.18,4.319-2.88c1.641-0.699,3.381-1.05,5.221-1.05H73.932z"/>
	<path fill="#2d2d2d" d="M91.631,33.779v5.34h-2.639c-1.84,0-3.58-0.35-5.221-1.051c-1.641-0.699-3.08-1.668-4.32-2.908s-2.211-2.68-2.91-4.32
		s-1.049-3.381-1.049-5.221V1.379h5.34v16.2h10.799v5.341H80.832v2.699c0,1.121,0.209,2.182,0.629,3.18c0.42,1,1,1.871,1.74,2.611
		s1.609,1.318,2.611,1.738c0.998,0.42,2.059,0.631,3.18,0.631H91.631z"/>
	<path fill="#f99400" d="M120.551,12.179v13.44c0,1.84-0.35,3.58-1.049,5.221c-0.701,1.641-1.672,3.08-2.91,4.32
		c-1.24,1.24-2.67,2.209-4.291,2.908c-1.619,0.701-3.369,1.051-5.25,1.051c-1.84,0-3.58-0.35-5.219-1.051
		c-1.641-0.699-3.07-1.668-4.291-2.908s-2.18-2.68-2.879-4.32c-0.701-1.641-1.051-3.381-1.051-5.221v-13.44h5.34v13.44
		c0,1.121,0.211,2.182,0.631,3.18c0.42,1,0.998,1.871,1.738,2.611s1.6,1.318,2.58,1.738s2.031,0.631,3.15,0.631
		s2.18-0.211,3.18-0.631s1.871-0.998,2.611-1.738c0.738-0.74,1.32-1.611,1.74-2.611c0.42-0.998,0.629-2.059,0.629-3.18v-13.44
		H120.551z"/>
	<path fill="#f99400" d="M127.451,12.179v26.94h-5.281v-26.94H127.451z"/>
</g>
</svg>
